# xmcd
#
# Track frame offsets: 
#        150
#        21467
#        36740
#        51753
#        73474
#        85736
#        99336
#        116043
#        132458
#        144376
#        154317
#        165900
#        175439
#        187110
#        199515
#        213478
#        225292
#        238727
#        251937
#        263342
#        274968
#        288754
#
# Disc length: 4002 seconds
#
# Revision: 0
# Processed by: cddbd v1.5.2PL0 Copyright (c) Steve Scherf et al.
# Submitted via: ExactAudioCopy v1.1
#
DISCID=4c0fa016
DTITLE=Various Artist - All-Time Country Favourites Through the Years
DTITLE=Disc 3
DYEAR=2012
DGENRE=Country
TTITLE0=Bobby Goldsboro - Summer ( the first time )
TTITLE1=George Jones - Shine on ( shine all your sweet love on me )
TTITLE2=Dolly Parton - But you know I love you
TTITLE3=Merle Haggard and Willie Nelson - Pancho and Lefty
TTITLE4=Charley Pride - Night games
TTITLE5=Dr Hook - Better love next time
TTITLE6=Don Williams - Love is on a roll
TTITLE7=Alabama - When we make love
TTITLE8=Loretta Lynn - God's country
TTITLE9=Marty Robbins - Knee deep in the blues
TTITLE10=Johnny Cash - Big river
TTITLE11=Webb Pierce - Honky tonk song
TTITLE12=Jim Reeves - I missed me
TTITLE13=Ray Price - The same old me
TTITLE14=Lefty Frizzell - Mom and Dad's waltz
TTITLE15=Eddy Arnold - Don't rob another man's castle
TTITLE16=Merle Travis - So round, so firm, so fully packed
TTITLE17=Ernest Tubb - Slipping around
TTITLE18=Patsy Cline - In care of the blues
TTITLE19=Carl Smith  - Back up buddy
TTITLE20=Red Foley - Birmingham bounce
TTITLE21=Faron Young - If I ever fall in love ( with a honky tonk girl
TTITLE21=)
EXTD=
EXTT0=
EXTT1=
EXTT2=
EXTT3=
EXTT4=
EXTT5=
EXTT6=
EXTT7=
EXTT8=
EXTT9=
EXTT10=
EXTT11=
EXTT12=
EXTT13=
EXTT14=
EXTT15=
EXTT16=
EXTT17=
EXTT18=
EXTT19=
EXTT20=
EXTT21=
PLAYORDER=
